<?xml version="1.0" standalone="no"?>
<!DOCTYPE svg PUBLIC "-//W3C//DTD SVG 20010904//EN"
        "http://www.w3.org/TR/2001/REC-SVG-20010904/DTD/svg10.dtd">
<svg version="1.0" xmlns="http://www.w3.org/2000/svg"
     width="2700.000000pt" height="650.000000pt" viewBox="0 0 2700.000000 650.000000"
     preserveAspectRatio="xMidYMid meet">

    <g transform="translate(0.000000,650.000000) scale(0.100000,-0.100000)"
       fill="#000000" stroke="none">
        <path d="M7315 6133 c-32 -7 -95 -29 -158 -57 -21 -9 -49 -16 -62 -16 -14 0
-25 -6 -25 -13 0 -7 -21 -24 -47 -37 -26 -14 -56 -35 -65 -46 -10 -12 -29 -25
-43 -28 -14 -4 -25 -13 -25 -21 0 -8 -5 -15 -10 -15 -10 0 -120 -106 -120
-116 0 -3 -17 -22 -38 -42 -21 -21 -41 -45 -45 -55 -3 -9 -11 -17 -16 -17 -5
0 -13 -10 -17 -22 -7 -22 -15 -34 -46 -69 -10 -10 -18 -23 -18 -29 0 -5 -4
-10 -10 -10 -5 0 -10 -6 -10 -13 0 -8 -9 -24 -20 -37 -11 -13 -20 -31 -20 -41
0 -9 -3 -19 -7 -21 -5 -1 -24 -34 -43 -73 -19 -38 -38 -71 -42 -73 -5 -2 -8
-12 -8 -22 0 -10 -5 -22 -11 -25 -6 -4 -8 -13 -5 -20 3 -8 -2 -19 -10 -25 -8
-7 -14 -23 -14 -35 0 -12 -7 -28 -15 -35 -13 -11 -13 -15 -3 -21 10 -7 9 -9
-4 -9 -11 0 -18 -8 -18 -20 0 -11 -4 -20 -9 -20 -5 0 -11 -22 -15 -50 -4 -27
-11 -52 -16 -55 -6 -3 -10 -16 -10 -29 0 -12 -5 -27 -10 -32 -6 -6 -15 -38
-21 -72 -11 -60 -12 -62 -48 -68 -20 -4 -40 -10 -46 -14 -5 -5 -31 -11 -58
-15 -26 -4 -50 -11 -52 -16 -3 -4 -26 -11 -50 -15 -25 -3 -48 -10 -51 -15 -2
-5 -27 -11 -54 -15 -28 -4 -50 -10 -50 -14 0 -5 -22 -11 -50 -15 -27 -4 -52
-11 -55 -16 -3 -4 -28 -11 -55 -15 -29 -4 -50 -12 -50 -19 0 -6 -18 -17 -39
-24 -24 -7 -42 -19 -46 -31 -4 -11 -11 -20 -16 -20 -6 0 -7 -4 -4 -10 3 -5 1
-10 -6 -10 -6 0 -9 -8 -6 -20 3 -11 1 -23 -4 -26 -6 -3 -10 -24 -10 -47 0 -87
-11 -177 -21 -177 -7 0 -9 -21 -6 -55 3 -32 0 -56 -6 -58 -11 -4 -16 -41 -41
-282 -9 -88 -20 -174 -25 -191 -6 -17 -10 -54 -10 -82 0 -29 -4 -52 -8 -52 -4
0 -13 -55 -20 -122 -23 -227 -37 -336 -44 -344 -5 -4 -8 -34 -8 -66 0 -45 -3
-58 -15 -58 -8 0 -15 -7 -15 -15 0 -8 5 -15 10 -15 15 0 12 -65 -5 -97 -9 -16
-17 -72 -21 -135 -3 -60 -10 -108 -16 -108 -5 0 -9 -24 -8 -53 2 -28 0 -59 -3
-67 -6 -16 -14 -75 -23 -170 -3 -30 -10 -65 -16 -77 -6 -12 -8 -40 -5 -62 2
-21 1 -43 -3 -48 -5 -4 -11 -33 -14 -63 -10 -104 -26 -225 -36 -273 -5 -26
-10 -68 -10 -91 0 -31 -5 -46 -16 -50 -13 -5 -14 -9 -4 -21 12 -15 11 -30 -9
-165 -22 -141 -30 -219 -30 -302 -1 -81 1 -88 18 -88 11 0 23 -4 26 -10 3 -5
25 -10 49 -10 23 0 46 -4 52 -9 5 -5 76 -17 159 -26 82 -9 153 -21 156 -27 4
-6 30 -13 58 -16 28 -2 51 -8 51 -12 0 -4 35 -10 78 -14 42 -4 105 -14 140
-22 35 -7 79 -14 98 -14 19 0 34 -4 34 -9 0 -4 35 -11 78 -15 42 -4 104 -13
137 -21 33 -8 77 -15 97 -15 20 0 39 -4 42 -9 3 -4 38 -12 78 -16 40 -3 78
-10 83 -14 19 -15 60 -22 163 -30 57 -4 107 -12 110 -18 4 -6 23 -13 42 -16
54 -8 288 -46 354 -57 33 -6 76 -14 95 -20 20 -5 70 -12 111 -16 41 -3 80 -11
87 -16 6 -5 38 -11 70 -13 33 -2 70 -8 84 -13 13 -5 58 -13 99 -17 41 -4 82
-13 90 -20 13 -10 125 -30 223 -39 15 -2 30 -6 34 -9 3 -4 23 -7 43 -7 20 0
40 -4 46 -9 14 -13 192 -31 309 -31 110 0 237 15 267 31 10 5 34 9 53 9 19 0
35 3 35 8 0 4 10 8 23 8 62 4 193 30 199 40 4 6 34 15 65 19 32 4 84 14 117
22 32 8 67 12 77 10 11 -3 25 1 32 8 7 7 42 16 78 20 35 3 86 13 113 21 27 8
65 14 83 14 18 0 33 4 33 8 0 4 39 13 88 20 122 17 195 34 211 50 9 8 26 12
45 9 33 -6 178 20 186 33 7 10 68 22 113 21 54 -1 54 -11 16 219 -24 152 -41
262 -49 330 -5 41 -14 98 -19 125 -9 45 -30 179 -46 290 -3 22 -10 63 -15 90
-5 28 -16 100 -25 160 -9 61 -20 133 -24 160 -15 86 -52 348 -57 400 -3 28 -9
59 -14 70 -5 11 -11 45 -15 75 -7 64 -11 93 -24 175 -6 33 -18 107 -26 165 -9
58 -20 130 -25 160 -24 147 -56 360 -65 430 -2 19 -9 62 -15 95 -12 66 -38
244 -46 315 -3 25 -8 52 -11 60 -7 17 -8 25 -24 135 -11 81 -18 126 -38 245
-6 36 -13 83 -16 105 -11 101 -32 241 -38 255 -3 8 -8 33 -10 55 -18 146 -28
190 -50 212 -20 19 -39 23 -207 34 -102 6 -214 14 -250 16 l-65 5 -110 108
c-151 147 -233 223 -258 237 -27 15 -57 17 -57 3 0 -5 -18 -10 -40 -10 -22 0
-40 -4 -40 -10 0 -5 -11 -10 -24 -10 -13 0 -26 -5 -28 -11 -2 -6 -24 -13 -49
-16 l-46 -5 -12 45 c-6 25 -15 48 -20 52 -6 3 -20 27 -33 53 -12 26 -33 61
-45 78 -13 17 -23 36 -23 42 0 6 -16 26 -35 43 -19 18 -35 38 -35 46 0 7 -3
13 -7 13 -5 0 -30 20 -58 45 -27 25 -52 45 -55 45 -4 0 -15 8 -26 18 -34 30
-130 59 -269 79 -29 4 -55 19 -94 54 -30 26 -77 60 -106 74 -49 23 -61 25
-191 24 -76 -1 -148 -3 -159 -6z m198 -245 c-13 -6 -23 -15 -23 -20 0 -4 -7
-8 -16 -8 -8 0 -13 -4 -10 -9 3 -5 -5 -12 -18 -15 -36 -9 -246 -221 -246 -249
0 -7 -9 -20 -37 -52 -7 -7 -13 -21 -13 -29 0 -9 -4 -16 -8 -16 -8 0 -52 -92
-52 -110 0 -6 -4 -10 -10 -10 -5 0 -10 -7 -10 -15 0 -8 -5 -15 -11 -15 -6 0
-9 -9 -6 -20 3 -10 -1 -24 -8 -30 -7 -6 -15 -28 -19 -50 -3 -22 -11 -40 -17
-40 -7 0 -9 -11 -7 -25 3 -14 1 -25 -3 -25 -5 0 -9 -13 -9 -30 0 -16 -4 -30
-10 -30 -5 0 -10 -13 -10 -30 0 -16 -5 -30 -11 -30 -7 0 -10 -13 -7 -34 4 -34
3 -34 -42 -41 -25 -4 -51 -12 -58 -17 -12 -10 -113 -38 -219 -61 -29 -6 -53
-15 -53 -19 0 -4 -9 -8 -20 -8 -11 0 -20 5 -20 10 0 6 4 10 9 10 6 0 13 20 17
45 3 25 10 45 14 45 5 0 11 18 15 40 4 22 11 40 16 40 5 0 9 11 9 24 0 14 6
31 13 38 8 7 17 30 21 51 4 20 11 37 16 37 6 0 10 5 10 12 0 6 6 19 13 27 8 9
20 32 27 51 8 19 21 42 31 50 9 8 20 30 23 48 4 17 11 32 15 32 4 0 18 20 30
45 12 25 27 45 32 45 5 0 11 11 15 25 3 14 17 34 31 45 13 10 23 21 21 24 -4
8 135 146 147 146 6 0 16 9 23 20 7 11 19 20 27 20 8 0 15 4 15 9 0 5 10 13
22 17 12 3 28 13 36 20 7 8 22 14 33 14 10 0 19 5 19 10 0 6 7 10 16 10 9 0
30 6 47 14 42 19 67 23 157 24 61 1 71 -1 53 -10z m525 -199 c2 -5 9 -9 16 -9
15 0 96 -89 96 -105 0 -7 7 -15 15 -19 8 -3 15 -14 15 -25 0 -11 7 -26 15 -35
8 -8 15 -18 15 -23 1 -4 9 -26 20 -48 25 -51 25 -75 2 -75 -10 0 -22 -4 -28
-10 -5 -5 -32 -13 -59 -16 -28 -4 -52 -11 -55 -15 -4 -5 -20 -12 -38 -15 -29
-6 -32 -4 -32 17 0 56 -21 313 -29 355 l-9 46 27 -7 c14 -4 28 -11 29 -16z
m-318 -34 c0 -14 4 -25 9 -25 5 0 13 -30 17 -67 4 -38 8 -70 9 -73 0 -3 3 -9
6 -15 4 -5 10 -69 14 -141 l7 -132 -74 -12 c-40 -7 -77 -15 -83 -19 -5 -4 -37
-16 -70 -26 -33 -10 -69 -21 -80 -26 -11 -4 -36 -11 -55 -14 -41 -8 -128 -34
-152 -46 -10 -5 -20 -9 -23 -9 -7 0 6 54 15 60 4 3 10 22 14 43 4 20 11 37 15
37 5 0 12 15 15 34 4 19 13 39 21 46 8 7 13 16 10 20 -3 4 2 10 10 14 8 3 15
17 15 31 0 14 7 28 15 31 8 4 12 10 9 15 -3 5 0 9 6 9 6 0 9 4 6 8 -3 5 3 16
12 25 24 22 42 45 42 53 0 4 8 14 18 23 9 9 22 25 28 36 6 11 20 24 32 30 12
5 22 15 22 22 0 7 3 13 8 13 4 0 20 11 36 25 16 14 35 25 43 25 7 0 13 4 13 9
0 10 21 18 53 20 12 1 17 -6 17 -24z m-988 -1993 c164 -66 249 -242 235 -482
-13 -208 -99 -356 -249 -429 l-57 -27 36 -13 c83 -31 157 -128 190 -254 24
-89 21 -278 -5 -378 -56 -213 -192 -354 -387 -404 -47 -12 -130 -15 -417 -15
l-358 0 5 23 c5 22 265 1984 265 2000 0 5 154 7 343 5 329 -3 344 -4 399 -26z
m902 -14 c11 -77 56 -573 57 -614 0 -35 3 -31 24 41 13 44 75 199 138 345
l113 265 227 3 c125 1 227 0 227 -3 0 -2 -112 -236 -249 -519 l-249 -515 109
-478 c60 -263 111 -486 113 -495 4 -17 -11 -18 -218 -18 l-222 0 -37 288 c-20
158 -40 314 -43 347 l-6 60 -19 -60 c-10 -33 -69 -189 -131 -347 l-113 -287
-242 -1 c-134 0 -243 2 -243 5 0 3 117 239 260 525 l260 520 -105 479 c-58
264 -105 485 -105 490 0 8 73 11 224 11 l225 0 5 -42z"/>
        <path d="M6330 3274 c0 -5 -11 -90 -25 -188 -14 -99 -25 -181 -25 -183 0 -1
29 -3 65 -3 86 0 136 21 172 72 24 36 28 52 31 122 3 94 -15 142 -62 165 -34
16 -156 28 -156 15z"/>
        <path d="M6225 2468 c-2 -7 -13 -83 -25 -168 -11 -85 -23 -170 -27 -187 l-5
-33 91 0 c113 0 158 19 195 83 50 85 43 226 -14 287 -27 29 -31 30 -119 30
-65 0 -93 -4 -96 -12z"/>
    </g>
</svg>
