<?xml version="1.0" encoding="UTF-8" standalone="no"?>
<svg
        xmlns:dc="http://purl.org/dc/elements/1.1/"
        xmlns:cc="http://creativecommons.org/ns#"
        xmlns:rdf="http://www.w3.org/1999/02/22-rdf-syntax-ns#"
        xmlns="http://www.w3.org/2000/svg"
        id="svg3897"
        version="1.1"
        viewBox="0 0 808.75 142.97">
    <metadata
            id="metadata3901">
        <rdf:RDF>
            <cc:Work
                    rdf:about="">
                <dc:format>image/svg+xml</dc:format>
                <dc:type
                        rdf:resource="http://purl.org/dc/dcmitype/StillImage"/>
                <dc:title>Uzcard1</dc:title>
            </cc:Work>
        </rdf:RDF>
    </metadata>
    <defs
            id="defs3885">
        <style
                id="style3883">.cls-1{fill:#293982}.cls-2{fill:#ef4823}
        </style>
    </defs>
    <title
            id="title3887">Uzcard1
    </title>
    <g
            data-name="Layer 2"
            id="Layer_2">
        <g
                data-name="Layer 1"
                id="Layer_1-2">
            <path
                    id="path3889"
                    d="M639.64 140.8h-11c-9.49 0-15.84-4.29-19.18-13.09-3-7.93-6-15.87-8.68-23.9-1.45-4.35-3.58-6.38-8.59-6.18-13 .52-10.08-1.33-12.45 10.76-1.79 9.14-3.14 18.38-4.37 27.61-.46 3.48-1.69 4.93-5.33 4.87q-15.73-.26-31.47 0c-3.71.05-4.59-1.35-4.05-4.83 3.29-21.22 6.43-42.46 9.63-63.69 3.23-21.4 6.55-42.78 9.6-64.2.5-3.51 1.59-4.87 5.24-4.84 20.65.15 41.31-.33 61.94.32a70.91 70.91 0 0 1 23.29 4.74C661 15 668.11 31.23 663.71 49.44a59 59 0 0 1-23.3 34.91c-3.07 2.24-3.78 3.94-2.12 7.74 6.38 14.62 12.11 29.53 18.33 44.22 1.56 3.68.29 4.5-3 4.49zm-41.87-75.25c13.35.83 17.86-3.33 21.27-8.77 5.96-9.48.44-19.78-10.74-20.14-4.65-.15-9.31 0-14 0-2.83 0-4.22 1.13-4.53 4-.5 4.62-1.35 9.2-1.95 13.82-1.39 11.07-1.37 11.07 9.95 11.09zM726.85 2.58c12.47 0 25.42 0 37.68 2.5 22.68 4.61 39.68 21.32 43.26 44.45 6.92 44.68-24.19 85.9-69.22 90-20.66 1.87-41.58.95-62.38 1.3-3.21.05-4.3-1.1-3.77-4.59 4.85-31.92 9.52-63.88 14.25-95.82 1.61-10.87 3.32-21.72 4.78-32.61.63-4.7 3.47-4.7 7.47-4.74 5.75-.06 11.5-.32 17.24-.38 3.56-.06 7.13-.1 10.69-.11zm.58 105.09c5.18-1.05 10.66-1.35 15.48-3.29 18.08-7.3 28.24-32.07 21.47-51-2.82-7.86-7.71-13.81-15.84-16-4.24-1.14-8.94-.45-13.39-1-5-.62-7.06 1.33-7.76 6.35-2.55 18.19-5.39 36.27-8.31 54.38-1.6 9.82-1.81 9.79 8.35 10.56zM255.72 140.1a21.82 21.82 0 0 1-5.22.66q-56 .05-111.92 0c-6 0-5.92-.3-5.28-6.39 1.53-14.57 8-26.34 18.28-36.7 18.3-18.43 36.07-37.38 54-56.14.87-.91 1.53-2 3-4-2.68-.24-4.36-.52-6-.53-15.66 0-31.31-.1-47 .07-3.86 0-4.9-1-4.2-4.93C152.91 24 154 15.75 155 7.49c.43-3.52 2-4.65 5.55-4.63q27 .1 54.07.1h39.93c2.52 0 8.87-1.18 10.9.87 1.07 1.08.75 2.86.39 4.34-2.33 9.58-1.65 20.85-9 28.57-20.84 21.76-41.45 43.74-62.11 65.67-.65.69-1.16 1.53-2.36 3.15a51.28 51.28 0 0 0 5.68.71c12.49 0 25 .07 37.47 0 6.08 0 6 5 7.63 9.67a73.79 73.79 0 0 0 8.21 16.35c1.46 2.17 4.38 5.23 4.36 7.81zM387.24 139.41l19.37-40q22.29-46 44.5-92.12c1.51-3.14 3.28-4.46 6.84-4.4q17 .3 34 0c3.8-.07 5.15 1.32 5.83 5 6.8 37.18 13.79 74.33 20.72 111.49 1.07 5.73 2 11.48 3.1 17.21.58 3.06-.48 4.29-3.63 4.26-10.33-.1-20.67.1-31-.2-1.48 0-3.71-2-4.16-3.51a46.35 46.35 0 0 1-1.49-10.36c-.2-3.12-1.5-4.41-4.67-4.39-13 .09-26-.08-39 .17-1.66 0-3.92 1.66-4.79 3.18-2.06 3.58-3.22 7.67-5.21 11.31-.8 1.46-2.79 3.18-4.27 3.21-11 .23-22 .09-33 0a16.31 16.31 0 0 1-3.14-.85zm82.13-99.62A20.53 20.53 0 0 0 467 43c-6.45 15.28-12.83 30.59-19.26 45.87-1.14 2.71-.06 3.73 2.57 3.74 7.47 0 14.95-.06 22.42 0 3.48 0 4.16-1.69 3.74-4.77-2-14.8-3.86-29.63-5.82-44.44a21.9 21.9 0 0 0-1.28-3.61zM375.54 92.25c2 4 4.08 8.29 6.1 12.59s3.78 8.9 6.09 13.13c1.62 3 .56 4.5-1.71 6.24-19.61 15.08-41.74 20.77-66.21 18.16C307.2 141 295.17 137.87 285 130c-18.24-14-24.21-33.34-20.74-55.1 5.59-35.05 25.32-59.65 59.44-70.38 25.42-8 50.4-6.11 72.6 10.95 3 2.33 4 4.09 1.45 7.69-5.28 7.47-10.12 15.26-14.85 23.1-2 3.4-3.49 3.84-6.81 1.23-14.88-11.67-36-13.41-50.62-4.29-13 8.09-18.92 20.46-19.29 35.27-.35 14 11.31 25.46 26.39 27.15 13.59 1.52 25.66-2.5 36.74-10.11 1.51-1 3-2.06 4.55-3.05.21-.13.6-.07 1.68-.21z"
                    class="cls-1"/>
            <path
                    id="path3891"
                    d="M100.39 3.13c9.83 0 19.66.15 29.49-.07 4.07-.09 5.3 1.31 4.7 5.28-3.32 22.23-6.52 44.49-9.74 66.73-2.06 14.17-4.22 28.33-6.07 42.53-.58 4.43-2.1 6.47-6.94 6.2-11.13-.61-22.36 0-33.4-1.27-16.61-1.86-25.3-11.66-24.49-28.32C54.63 80 57.1 65.8 59 51.61c1.82-13.87 3.93-27.69 5.79-41.56.88-6.53 1.12-6.91 7.64-6.92q13.96-.02 27.96 0z"
                    class="cls-2"/>
            <path
                    id="path3893"
                    d="M62.71 140.55H44.64c-8.49 0-17 .09-25.47 0C7.66 140.4 0 132.8 0 121.42V22C0 10.56 7.61 3 19.11 3c7.16-.05 14.33.19 21.47-.1 4-.16 4.83 1.22 4.25 5-3.42 21.86-6.61 43.76-10 65.64-2 13.06-3.65 26.06.61 39 4 12.08 11.47 20.82 23.43 25.55a28.22 28.22 0 0 1 3.84 2.46z"
                    class="cls-1"/>
        </g>
    </g>
</svg>
