<svg width="38" height="38" viewBox="0 0 38 38" fill="none" xmlns="http://www.w3.org/2000/svg">
<path d="M12.6667 15.0416C11.5736 15.0416 10.6875 15.9277 10.6875 17.0208C10.6875 18.1138 11.5736 19 12.6667 19C13.7597 19 14.6458 18.1138 14.6458 17.0208C14.6458 15.9277 13.7597 15.0416 12.6667 15.0416Z" fill="white"/>
<path d="M19.0002 15.0416C17.907 15.0416 17.021 15.9277 17.021 17.0208C17.021 18.1138 17.907 19 19.0002 19C20.0933 19 20.9793 18.1138 20.9793 17.0208C20.9793 15.9277 20.0933 15.0416 19.0002 15.0416Z" fill="white"/>
<path d="M23.354 17.0208C23.354 15.9277 24.24 15.0416 25.3332 15.0416C26.4263 15.0416 27.3123 15.9277 27.3123 17.0208C27.3123 18.1138 26.4263 19 25.3332 19C24.24 19 23.354 18.1138 23.354 17.0208Z" fill="white"/>
<path fill-rule="evenodd" clip-rule="evenodd" d="M25.4929 7.27192C21.2271 6.90814 16.9391 6.88701 12.6699 7.20879L12.364 7.23185C8.29273 7.5387 5.146 10.9315 5.146 15.0143V28.5C5.146 28.9179 5.36556 29.3048 5.72415 29.5192C6.08274 29.7336 6.52763 29.7437 6.89564 29.546L13.0877 26.2183C13.3758 26.0634 13.6976 25.9825 14.0246 25.9825H28.2373C30.0298 25.9825 31.5658 24.701 31.8872 22.9375C32.5385 19.3636 32.5898 15.7061 32.0394 12.1153L31.8773 11.0571C31.582 9.13057 30.0059 7.65678 28.064 7.49117L25.4929 7.27192ZM12.8484 9.57707C16.9909 9.26485 21.1519 9.28534 25.2912 9.63832L27.8621 9.85757C28.7114 9.92999 29.4004 10.5745 29.5296 11.4169L29.6918 12.4751C30.2022 15.8053 30.1546 19.1973 29.5507 22.5119C29.435 23.1463 28.8822 23.6075 28.2373 23.6075H14.0246C13.3053 23.6075 12.5971 23.7857 11.9634 24.1262L7.521 26.5137V15.0143C7.521 12.1739 9.71014 9.8136 12.5424 9.60013L12.8484 9.57707Z" fill="white"/>
</svg>
