<svg width="38" height="38" viewBox="0 0 38 38" fill="none" xmlns="http://www.w3.org/2000/svg">
<path d="M16.625 25.3334C16.625 24.0217 17.6884 22.9584 19 22.9584C20.3116 22.9584 21.375 24.0217 21.375 25.3334C21.375 26.645 20.3116 27.7084 19 27.7084C17.6884 27.7084 16.625 26.645 16.625 25.3334Z" fill="white"/>
<path fill-rule="evenodd" clip-rule="evenodd" d="M12.0675 16.7787L11.5681 12.2837C11.5041 11.7074 11.5041 11.1258 11.5681 10.5495L11.6041 10.2251C11.9865 6.7839 14.6918 4.06112 18.1305 3.65656C18.7081 3.5886 19.2917 3.5886 19.8693 3.65656C23.308 4.06112 26.0133 6.78391 26.3957 10.2251L26.4316 10.5495C26.4957 11.1258 26.4957 11.7074 26.4316 12.2837L25.9322 16.7787L27.0193 16.8655C28.7336 17.0025 30.1334 18.2911 30.4115 19.9883C30.991 23.528 30.991 27.1385 30.4115 30.6783C30.1334 32.3755 28.7336 33.6642 27.0193 33.801L24.6505 33.9902C20.8895 34.2904 17.1105 34.2904 13.3494 33.9902L10.9806 33.801C9.26625 33.6642 7.86642 32.3755 7.58852 30.6783C7.00891 27.1385 7.00891 23.528 7.58852 19.9883C7.86642 18.2911 9.26625 17.0025 10.9806 16.8655L12.0675 16.7787ZM18.4079 6.0153C18.8012 5.96903 19.1986 5.96903 19.5918 6.0153C21.933 6.29072 23.7748 8.1445 24.0352 10.4874L24.0712 10.8118C24.1158 11.2138 24.1158 11.6195 24.0712 12.0215L23.5628 16.5981C20.524 16.4024 17.4758 16.4024 14.4371 16.5981L13.9286 12.0215C13.8839 11.6195 13.8839 11.2138 13.9286 10.8118L13.9646 10.4874C14.2249 8.1445 16.0668 6.29072 18.4079 6.0153ZM24.4615 19.0439C20.8263 18.7538 17.1737 18.7538 13.5384 19.0439L11.1696 19.2331C10.5443 19.2829 10.0337 19.753 9.93231 20.3721C9.39431 23.6577 9.39431 27.009 9.93231 30.2945C10.0337 30.9136 10.5443 31.3837 11.1696 31.4336L13.5384 31.6226C17.1737 31.9129 20.8263 31.9129 24.4615 31.6226L26.8303 31.4336C27.4557 31.3837 27.9662 30.9136 28.0677 30.2945C28.6057 27.009 28.6057 23.6577 28.0677 20.3721C27.9662 19.753 27.4557 19.2829 26.8303 19.2331L24.4615 19.0439Z" fill="white"/>
</svg>
