<svg width="38" height="38" viewBox="0 0 38 38" fill="none" xmlns="http://www.w3.org/2000/svg">
<path d="M10.3638 12.9243C10.023 12.8344 9.73978 12.5978 9.5907 12.2784C9.44161 11.9591 9.44207 11.59 9.59195 11.271L12.2215 5.67493C12.4174 5.25789 12.8369 4.99186 13.2977 4.99243C13.7585 4.993 14.1773 5.26008 14.3722 5.67759L15.5322 8.1622C15.5737 8.14591 15.6165 8.13177 15.6606 8.11996C22.5438 6.2756 29.6191 10.3604 31.4634 17.2437C33.3078 24.1271 29.223 31.2022 22.3397 33.0466C15.4564 34.8909 8.38119 30.8061 6.53681 23.9228C5.95029 21.7339 5.9635 19.5223 6.47718 17.4659C6.63613 16.8297 7.2808 16.4427 7.91708 16.6017C8.55337 16.7605 8.94033 17.4052 8.78137 18.0416C8.36292 19.7167 8.35137 21.5186 8.83089 23.3082C10.3358 28.9244 16.1087 32.2574 21.7249 30.7526C27.3413 29.2476 30.6742 23.4748 29.1694 17.8585C27.689 12.334 22.0793 9.01875 16.5509 10.3441L17.7213 12.851C17.9162 13.2685 17.8519 13.7611 17.5566 14.1147C17.2612 14.4683 16.7879 14.6191 16.3424 14.5016L10.3638 12.9243Z" fill="white"/>
</svg>
