<svg width="47" height="40" viewBox="0 0 40 27" fill="none" xmlns="http://www.w3.org/2000/svg">
<path d="M11 15.75H4" stroke="white" stroke-width="2" stroke-linecap="round"/>
<path d="M14 10.75L1 10.75" stroke="white" stroke-width="2" stroke-linecap="round"/>
<path d="M16 5.75H4" stroke="white" stroke-width="2" stroke-linecap="round"/>
<path d="M17 22.25C17 24.183 15.433 25.75 13.5 25.75C11.567 25.75 10 24.183 10 22.25C10 20.317 11.567 18.75 13.5 18.75C15.433 18.75 17 20.317 17 22.25Z" stroke="white" stroke-width="2"/>
<path d="M35 22.25C35 24.183 33.433 25.75 31.5 25.75C29.567 25.75 28 24.183 28 22.25C28 20.317 29.567 18.75 31.5 18.75C33.433 18.75 35 20.317 35 22.25Z" stroke="white" stroke-width="2"/>
<path fill-rule="evenodd" clip-rule="evenodd" d="M4.75 0.75C4.75 0.335786 5.08579 0 5.5 0H26C26.9665 0 27.75 0.783501 27.75 1.75V2.5H32.4C33.0463 2.5 33.64 2.85621 33.9441 3.42647L37.6255 10.3291L39.8444 12.9917C40.1065 13.3062 40.25 13.7027 40.25 14.1121V20.75C40.25 21.7165 39.4665 22.5 38.5 22.5H35.9932C35.9977 22.4172 36 22.3339 36 22.25C36 21.8163 35.9386 21.3969 35.8241 21H38.5C38.6381 21 38.75 20.8881 38.75 20.75V14.1121C38.75 14.0536 38.7295 13.9969 38.6921 13.952L36.6487 11.5H28C27.0335 11.5 26.25 10.7165 26.25 9.75V3.25V1.75C26.25 1.61193 26.1381 1.5 26 1.5H5.5C5.08579 1.5 4.75 1.16421 4.75 0.75ZM27.1759 21H17.8241C17.9386 21.3969 18 21.8163 18 22.25C18 22.3339 17.9977 22.4172 17.9932 22.5H27.0068C27.0023 22.4172 27 22.3339 27 22.25C27 21.8163 27.0614 21.3969 27.1759 21ZM9 22.25C9 22.3339 9.0023 22.4172 9.00683 22.5H5.5C5.08579 22.5 4.75 22.1642 4.75 21.75C4.75 21.3358 5.08579 21 5.5 21H9.17588C9.06136 21.3969 9 21.8163 9 22.25ZM35.75 10L32.6206 4.13235C32.5771 4.05089 32.4923 4 32.4 4H27.75V9.75C27.75 9.88807 27.8619 10 28 10H35.75Z" fill="white"/>
</svg>
